<?xml version="1.0" encoding="UTF-8"?><svg id="b" xmlns="http://www.w3.org/2000/svg" viewBox="0 0 256 166"><g id="c"><g><g><g><path d="m45.91,86.7l-15.53-50.62h-.4c.56,10.3.84,17.17.84,20.61v30.01h-12.22V22.18h18.62l15.27,49.34h.26l16.2-49.34h18.62v64.52h-12.75v-30.54c0-1.44.02-3.1.07-4.99.04-1.88.24-6.88.6-15h-.4l-16.64,50.53h-12.53Z" fill="#fff"/><path d="m144.58,86.7h-37.16V22.18h37.16v11.21h-23.48v14.17h21.84v11.21h-21.84v16.64h23.48v11.3Z" fill="#fff"/><path d="m224.5,86.7h-15.58l-8.74-33.89c-.32-1.21-.88-3.7-1.66-7.48-.78-3.78-1.23-6.32-1.35-7.61-.18,1.59-.62,4.14-1.32,7.66s-1.25,6.02-1.63,7.52l-8.69,33.8h-15.53l-16.46-64.52h13.46l8.25,35.22c1.44,6.5,2.49,12.14,3.13,16.9.18-1.68.58-4.27,1.21-7.79.63-3.52,1.23-6.25,1.79-8.19l9.4-36.14h12.93l9.4,36.14c.41,1.62.93,4.09,1.54,7.41.62,3.33,1.09,6.18,1.41,8.56.29-2.29.76-5.16,1.41-8.58.65-3.43,1.24-6.2,1.77-8.32l8.21-35.22h13.46l-16.42,64.52Z" fill="#fff"/></g><g><path d="m23.64,125.88c-1.68,0-2.98.63-3.9,1.89-.92,1.26-1.38,3.02-1.38,5.28,0,4.7,1.76,7.04,5.29,7.04,1.48,0,3.27-.37,5.37-1.11v3.75c-1.73.72-3.66,1.08-5.79,1.08-3.06,0-5.41-.93-7.03-2.79-1.62-1.86-2.43-4.53-2.43-8,0-2.19.4-4.11,1.2-5.75s1.94-2.91,3.44-3.79c1.49-.88,3.24-1.32,5.25-1.32s4.1.5,6.17,1.48l-1.44,3.63c-.79-.37-1.58-.7-2.38-.98-.8-.28-1.58-.42-2.35-.42Z" fill="#fff"/><path d="m53.79,132.97c0,3.49-.86,6.17-2.59,8.04-1.73,1.87-4.21,2.81-7.43,2.81s-5.71-.94-7.43-2.81-2.59-4.56-2.59-8.07.87-6.18,2.6-8.03c1.73-1.85,4.22-2.77,7.46-2.77s5.71.93,7.43,2.79c1.71,1.86,2.57,4.54,2.57,8.04Zm-15.37,0c0,2.35.45,4.13,1.34,5.32.89,1.19,2.23,1.79,4,1.79,3.56,0,5.34-2.37,5.34-7.1s-1.77-7.12-5.32-7.12c-1.78,0-3.12.6-4.02,1.79-.9,1.2-1.35,2.97-1.35,5.32Z" fill="#fff"/><path d="m63.81,135.45v8.08h-4.47v-21.06h6.14c2.86,0,4.98.52,6.35,1.56,1.37,1.04,2.06,2.62,2.06,4.75,0,1.24-.34,2.34-1.02,3.31-.68.97-1.65,1.72-2.9,2.27,3.17,4.73,5.23,7.79,6.19,9.18h-4.96l-5.03-8.08h-2.38Zm0-3.63h1.44c1.41,0,2.45-.24,3.13-.71.67-.47,1.01-1.21,1.01-2.22s-.34-1.71-1.03-2.13-1.75-.63-3.19-.63h-1.35v5.69Z" fill="#fff"/><path d="m94.55,129.04c0,2.27-.71,4-2.12,5.2-1.42,1.2-3.43,1.8-6.04,1.8h-1.92v7.49h-4.47v-21.06h6.73c2.55,0,4.5.55,5.83,1.65s2,2.74,2,4.92Zm-10.08,3.34h1.47c1.37,0,2.4-.27,3.08-.81.68-.54,1.02-1.33,1.02-2.37s-.29-1.82-.86-2.32c-.57-.5-1.47-.75-2.69-.75h-2.03v6.25Z" fill="#fff"/><path d="m118.82,132.97c0,3.49-.86,6.17-2.59,8.04-1.73,1.87-4.21,2.81-7.43,2.81s-5.71-.94-7.43-2.81-2.59-4.56-2.59-8.07.87-6.18,2.6-8.03c1.73-1.85,4.22-2.77,7.46-2.77s5.71.93,7.43,2.79c1.71,1.86,2.57,4.54,2.57,8.04Zm-15.37,0c0,2.35.45,4.13,1.34,5.32.89,1.19,2.23,1.79,4,1.79,3.56,0,5.34-2.37,5.34-7.1s-1.77-7.12-5.32-7.12c-1.78,0-3.12.6-4.02,1.79-.9,1.2-1.35,2.97-1.35,5.32Z" fill="#fff"/><path d="m128.83,135.45v8.08h-4.47v-21.06h6.14c2.86,0,4.98.52,6.35,1.56,1.37,1.04,2.06,2.62,2.06,4.75,0,1.24-.34,2.34-1.02,3.31-.68.97-1.65,1.72-2.9,2.27,3.17,4.73,5.23,7.79,6.19,9.18h-4.96l-5.03-8.08h-2.38Zm0-3.63h1.44c1.41,0,2.45-.24,3.13-.71.67-.47,1.01-1.21,1.01-2.22s-.34-1.71-1.03-2.13-1.75-.63-3.19-.63h-1.35v5.69Z" fill="#fff"/><path d="m157.92,143.53l-1.53-5.01h-7.68l-1.53,5.01h-4.81l7.43-21.15h5.46l7.46,21.15h-4.81Zm-2.59-8.76c-1.41-4.54-2.21-7.11-2.38-7.71s-.3-1.07-.38-1.41c-.32,1.23-1.22,4.27-2.72,9.12h5.49Z" fill="#fff"/><path d="m174.69,143.53h-4.47v-17.35h-5.72v-3.72h15.91v3.72h-5.72v17.35Z" fill="#fff"/><path d="m184.83,143.53v-21.06h4.47v21.06h-4.47Z" fill="#fff"/><path d="m214.89,132.97c0,3.49-.86,6.17-2.59,8.04-1.73,1.87-4.21,2.81-7.43,2.81s-5.71-.94-7.43-2.81-2.59-4.56-2.59-8.07.87-6.18,2.6-8.03c1.73-1.85,4.22-2.77,7.46-2.77s5.71.93,7.43,2.79c1.71,1.86,2.57,4.54,2.57,8.04Zm-15.37,0c0,2.35.45,4.13,1.34,5.32.89,1.19,2.23,1.79,4,1.79,3.56,0,5.34-2.37,5.34-7.1s-1.77-7.12-5.32-7.12c-1.78,0-3.12.6-4.02,1.79-.9,1.2-1.35,2.97-1.35,5.32Z" fill="#fff"/><path d="m239.12,143.53h-5.68l-9.16-15.93h-.13c.18,2.81.27,4.82.27,6.02v9.91h-3.99v-21.06h5.63l9.15,15.78h.1c-.14-2.74-.22-4.67-.22-5.81v-9.97h4.02v21.06Z" fill="#fff"/></g><rect x="13.5" y="103.25" width="228" height="2" fill="#fff"/></g><rect width="256" height="166" fill="none"/></g></g></svg>